<mxfile host="65bd71144e">
    <diagram id="LJ_KRDc9WjJngPG9RiYA" name="第 1 页">
        <mxGraphModel dx="658" dy="683" grid="1" gridSize="10" guides="1" tooltips="1" connect="1" arrows="1" fold="1" page="1" pageScale="1" pageWidth="827" pageHeight="1169" background="#F1FAEE" math="0" shadow="0">
            <root>
                <mxCell id="0"/>
                <mxCell id="1" parent="0"/>
                <mxCell id="13" value="" style="rounded=0;whiteSpace=wrap;html=1;sketch=0;fontColor=#1D3557;strokeColor=#457B9D;fillColor=none;" vertex="1" parent="1">
                    <mxGeometry x="90" y="90" width="530" height="410" as="geometry"/>
                </mxCell>
                <mxCell id="2" value="" style="rounded=0;whiteSpace=wrap;html=1;fillColor=#A8DADC;strokeColor=#457B9D;fontColor=#1D3557;" vertex="1" parent="1">
                    <mxGeometry x="120" y="160" width="190" height="290" as="geometry"/>
                </mxCell>
                <mxCell id="3" value="" style="rounded=0;whiteSpace=wrap;html=1;fillColor=#A8DADC;strokeColor=#457B9D;fontColor=#1D3557;" vertex="1" parent="1">
                    <mxGeometry x="380" y="160" width="190" height="290" as="geometry"/>
                </mxCell>
                <mxCell id="6" value="broker0" style="text;html=1;align=center;verticalAlign=middle;resizable=0;points=[];autosize=1;strokeColor=none;fontColor=#1D3557;" vertex="1" parent="1">
                    <mxGeometry x="190" y="130" width="60" height="20" as="geometry"/>
                </mxCell>
                <mxCell id="7" value="broker1" style="text;html=1;align=center;verticalAlign=middle;resizable=0;points=[];autosize=1;strokeColor=none;fontColor=#1D3557;" vertex="1" parent="1">
                    <mxGeometry x="450" y="130" width="60" height="20" as="geometry"/>
                </mxCell>
                <mxCell id="8" value="hw" style="rounded=0;whiteSpace=wrap;html=1;sketch=0;fontColor=#1D3557;strokeColor=#457B9D;fillColor=#A8DADC;" vertex="1" parent="1">
                    <mxGeometry x="167.5" y="210" width="95" height="40" as="geometry"/>
                </mxCell>
                <mxCell id="9" value="hw" style="rounded=0;whiteSpace=wrap;html=1;sketch=0;fontColor=#1D3557;strokeColor=#457B9D;fillColor=#A8DADC;" vertex="1" parent="1">
                    <mxGeometry x="427.5" y="220" width="95" height="40" as="geometry"/>
                </mxCell>
                <mxCell id="10" value="leo" style="rounded=0;whiteSpace=wrap;html=1;sketch=0;fontColor=#1D3557;strokeColor=#457B9D;fillColor=#A8DADC;" vertex="1" parent="1">
                    <mxGeometry x="167.5" y="270" width="95" height="40" as="geometry"/>
                </mxCell>
                <mxCell id="11" value="leo" style="rounded=0;whiteSpace=wrap;html=1;sketch=0;fontColor=#1D3557;strokeColor=#457B9D;fillColor=#A8DADC;" vertex="1" parent="1">
                    <mxGeometry x="427.5" y="280" width="95" height="40" as="geometry"/>
                </mxCell>
                <mxCell id="12" value="所有远程副本的LEO" style="rounded=0;whiteSpace=wrap;html=1;sketch=0;fontColor=#1D3557;strokeColor=#457B9D;fillColor=#A8DADC;" vertex="1" parent="1">
                    <mxGeometry x="155" y="340" width="130" height="70" as="geometry"/>
                </mxCell>
            </root>
        </mxGraphModel>
    </diagram>
</mxfile>